<svg style="fill:currentColor;" viewBox="0 0 512 512" xmlns="http://www.w3.org/2000/svg"><path d="M314.523,256l192.268,-192.268c6.945,-6.946 6.945,-18.177 0,-25.123l-33.4,-33.4c-6.946,-6.945 -18.177,-6.945 -25.123,0l-192.268,192.268l-192.268,-192.268c-6.946,-6.945 -18.177,-6.945 -25.123,0l-33.4,33.4c-6.945,6.946 -6.945,18.177 0,25.123l192.268,192.268l-192.268,192.268c-6.945,6.946 -6.945,18.177 0,25.123l33.4,33.4c6.946,6.945 18.177,6.945 25.123,0l192.268,-192.268l192.268,192.268c6.946,6.945 18.177,6.945 25.123,0l33.4,-33.4c6.945,-6.946 6.945,-18.177 0,-25.123l-192.268,-192.268Z"/></svg>