<?xml version="1.0" encoding="UTF-8" standalone="no"?><!DOCTYPE svg PUBLIC "-//W3C//DTD SVG 1.1//EN" "http://www.w3.org/Graphics/SVG/1.1/DTD/svg11.dtd"><svg width="100%" height="100%" viewBox="0 0 456 321" version="1.1" xmlns="http://www.w3.org/2000/svg" xmlns:xlink="http://www.w3.org/1999/xlink" xml:space="preserve" xmlns:serif="http://www.serif.com/" style="fill-rule:evenodd;clip-rule:evenodd;stroke-linejoin:round;stroke-miterlimit:1.41421;"><g id="Crowdin"><path d="M455.999,37.121c0,0 -311.54,-33.838 -343.166,103.914c-45.554,198.547 150.885,153.043 150.885,153.043c0,0 -266.908,113.633 -237.97,-150.171c19.588,-178.695 370.586,-135.583 430.251,-106.786Zm-24.347,35.185c0,0 -213.813,-2.422 -226.703,90.062c-18.599,133.351 112.043,90.972 112.043,90.972c0,0 -174.277,91.618 -171.051,-83.549c2.173,-118.624 243.385,-112.625 285.711,-97.485Zm-2.77,36.08c0,0 -141.19,-1.612 -149.721,59.499c-12.279,88.053 74.013,60.059 74.013,60.059c0,0 -115.105,60.511 -112.98,-55.155c1.44,-78.365 160.739,-74.396 188.688,-64.403Z" style="fill:#326732;"/><path d="M261.615,294.605c0,0 -261.615,111.062 -261.615,-122.449c30.337,7.737 58.398,13.97 85.784,16.734c-1.672,170.76 175.831,105.715 175.831,105.715Zm54.017,-40.807c0,0 -170.885,89.615 -185.412,-63.806c21.083,3.151 40.531,5.491 59.327,5.538c9.497,112.297 126.085,58.268 126.085,58.268Zm36.612,-25.541c0,0 -112.817,59.176 -122.448,-42.131c13.945,2.07 26.796,3.602 39.196,3.656c6.285,74.173 83.252,38.475 83.252,38.475Zm-79.322,-72.361c-1.016,3.889 -3.079,12.779 -3.677,16.203c-24.047,-2.704 -13.884,-0.205 -39.841,-4.486c0.18,-1.619 0.824,-9.99 1.143,-11.648c13.8,-70.922 172.354,-57.539 198.335,-47.579c0,0 -140.388,-11.49 -155.96,47.51Zm-77.399,-11.641c-1.539,5.84 -4.696,19.302 -5.573,24.534c-36.419,-4.097 -34.207,-3.05 -60.344,-6.814c0.243,-2.454 1.262,-15.111 1.722,-17.634c20.912,-107.407 260.999,-87.12 300.321,-72.033c0.003,-0.002 -212.578,-17.396 -236.126,71.947Zm-93.927,-31.879c-3.06,8.573 -9.504,28.467 -11.53,36.2c-52.544,-11.312 -38.831,-6.503 -87.076,-18.79c0.732,-3.66 3.934,-22.638 4.979,-26.328c45.345,-159.11 392.787,-94.659 448.031,-66.34c-0.001,0.003 -307.708,-56.241 -354.404,75.258Z" style="fill:#b7cc34;"/></g></svg>