<?xml version="1.0" encoding="UTF-8" standalone="no"?><!DOCTYPE svg PUBLIC "-//W3C//DTD SVG 1.1//EN" "http://www.w3.org/Graphics/SVG/1.1/DTD/svg11.dtd"><svg width="100%" height="100%" viewBox="0 0 1024 999" version="1.1" xmlns="http://www.w3.org/2000/svg" xmlns:xlink="http://www.w3.org/1999/xlink" xml:space="preserve" xmlns:serif="http://www.serif.com/" style="fill-rule:evenodd;clip-rule:evenodd;stroke-linejoin:round;stroke-miterlimit:1.41421;"><path d="M512.004,0c-282.735,0 -512.004,229.218 -512.004,511.996c0,226.217 146.705,418.138 350.14,485.839c25.588,4.74 34.982,-11.107 34.982,-24.63c0,-12.209 -0.474,-52.542 -0.695,-95.325c-142.44,30.973 -172.496,-60.41 -172.496,-60.41c-23.291,-59.18 -56.849,-74.916 -56.849,-74.916c-46.455,-31.778 3.501,-31.125 3.501,-31.125c51.414,3.603 78.486,52.762 78.486,52.762c45.666,78.274 119.777,55.645 148.994,42.562c4.596,-33.083 17.865,-55.687 32.507,-68.464c-113.723,-12.947 -233.271,-56.849 -233.271,-253.035c0,-55.899 20.001,-101.573 52.754,-137.429c-5.316,-12.904 -22.841,-64.971 4.96,-135.496c0,0 42.995,-13.761 140.837,52.482c40.842,-11.344 84.642,-17.033 128.154,-17.228c43.512,0.195 87.347,5.884 128.264,17.228c97.724,-66.243 140.66,-52.482 140.66,-52.482c27.869,70.525 10.335,122.592 5.019,135.496c32.829,35.856 52.694,81.53 52.694,137.429c0,196.652 -119.777,239.953 -233.788,252.628c18.365,15.889 34.728,47.048 34.728,94.816c0,68.498 -0.593,123.635 -0.593,140.507c0,13.625 9.216,29.59 35.169,24.562c203.325,-67.777 349.843,-259.631 349.843,-485.771c0,-282.778 -229.235,-511.996 -511.996,-511.996Zm-169.444,835.835c0.144,4.222 -4.774,7.724 -10.861,7.792c-6.122,0.144 -11.073,-3.273 -11.141,-7.427c0,-4.265 4.807,-7.733 10.929,-7.835c6.088,-0.118 11.073,3.273 11.073,7.47Zm38.993,-6.639c0.729,4.121 -3.502,8.352 -9.547,9.471c-5.944,1.094 -11.446,-1.45 -12.201,-5.537c-0.737,-4.222 3.57,-8.453 9.505,-9.547c6.054,-1.051 11.471,1.425 12.243,5.613Zm-80.894,3.57c-1.238,4.01 -6.995,5.833 -12.794,4.129c-5.791,-1.755 -9.581,-6.452 -8.411,-10.505c1.204,-4.036 6.986,-5.935 12.828,-4.112c5.782,1.746 9.581,6.41 8.377,10.488Zm-38.154,-16.542c-2.806,3.095 -8.784,2.264 -13.159,-1.958c-4.476,-4.13 -5.723,-9.988 -2.908,-13.083c2.841,-3.103 8.852,-2.23 13.261,1.959c4.442,4.12 5.799,10.021 2.806,13.082Zm-27.657,-28.488c-3.137,2.179 -8.267,0.136 -11.437,-4.417c-3.138,-4.553 -3.138,-10.013 0.067,-12.201c3.18,-2.187 8.233,-0.22 11.446,4.299c3.129,4.62 3.129,10.089 -0.076,12.319Zm-20.187,-29.488c-2.442,2.263 -7.216,1.212 -10.455,-2.366c-3.349,-3.569 -3.976,-8.343 -1.5,-10.641c2.518,-2.263 7.147,-1.203 10.505,2.366c3.349,3.612 4.002,8.351 1.45,10.641Zm-20.739,-23.13c-1.128,2.552 -5.13,3.307 -8.775,1.56c-3.714,-1.67 -5.8,-5.138 -4.596,-7.69c1.102,-2.62 5.113,-3.341 8.818,-1.602c3.722,1.678 5.842,5.18 4.553,7.732Z" style="fill:#fff;"/></svg>