<?xml version="1.0" encoding="UTF-8" standalone="no"?><!DOCTYPE svg PUBLIC "-//W3C//DTD SVG 1.1//EN" "http://www.w3.org/Graphics/SVG/1.1/DTD/svg11.dtd"><svg width="100%" height="100%" viewBox="0 0 214 195" version="1.1" xmlns="http://www.w3.org/2000/svg" xmlns:xlink="http://www.w3.org/1999/xlink" xml:space="preserve" xmlns:serif="http://www.serif.com/" style="fill-rule:evenodd;clip-rule:evenodd;stroke-linejoin:round;stroke-miterlimit:1.41421;"><g id="keybase"><path id="path4524" d="M106.667,14.211c-58.911,0 -106.667,47.756 -106.667,106.667c0,20.338 5.695,39.345 15.572,55.518l27.867,-29.588l141.044,0.882l-1.022,47.209c18.495,-19.183 29.872,-45.272 29.872,-74.021c0,-58.911 -47.756,-106.667 -106.666,-106.667" style="fill:#33a0ff;fill-rule:nonzero;"/><path id="path4528" d="M58.448,44.613c-5.198,-0.319 -9.182,-4.811 -8.88,-10.015l0.706,-11.396c0.309,-4.985 4.466,-8.892 9.462,-8.892c0.187,0 0.375,0.005 0.563,0.017l11.389,0.706c2.52,0.153 4.836,1.282 6.514,3.181c1.68,1.899 2.517,4.341 2.356,6.875l-0.699,11.352c-0.041,0.656 -0.173,1.176 -0.255,1.46l-0.405,1.982l-7.495,5.55l-13.256,-0.82Z" style="fill:#3dcc8e;fill-rule:nonzero;"/><path id="path4532" d="M59.737,8.587c-8.014,0 -14.679,6.264 -15.175,14.261l-0.705,11.376l-0.002,0.022l-0.001,0.02c-0.485,8.345 5.907,15.549 14.248,16.06l11.167,0.69l4.164,0.258l3.353,-2.483l4.056,-3.001l3.524,-2.61l0.809,-3.956c0.16,-0.606 0.334,-1.424 0.396,-2.424l0.699,-11.362c0.256,-4.06 -1.089,-7.974 -3.785,-11.022c-2.684,-3.037 -6.4,-4.85 -10.458,-5.097l-11.357,-0.704l-0.016,0l-0.017,-0.001c-0.299,-0.018 -0.602,-0.027 -0.9,-0.027m8.504,24.828l0.418,-6.767l-6.768,-0.418l-0.42,6.768l6.77,0.417m-8.504,-13.381c0.074,0 0.15,0.002 0.226,0.006l11.371,0.706c0.996,0.06 1.915,0.506 2.577,1.257c0.667,0.753 0.999,1.72 0.935,2.721l-0.7,11.366c-0.011,0.176 -0.081,0.33 -0.115,0.498l-4.056,3.003l-11.173,-0.691c-2.061,-0.126 -3.64,-1.906 -3.52,-3.969l0.705,-11.375c0.123,-1.985 1.77,-3.522 3.75,-3.522" style="fill:#282828;fill-rule:nonzero;"/><path id="path4536" d="M106.667,69.5c-44.536,0 -80.64,36.104 -80.64,80.64c0,16.561 4.994,31.953 13.556,44.758l137.406,0c7.232,-13.209 10.318,-28.849 10.318,-44.758c0,-41.219 -36.104,-80.64 -80.64,-80.64" style="fill:#fff;fill-rule:nonzero;"/><path id="path4540" d="M106.667,63.776c-47.622,0 -86.364,38.743 -86.364,86.364c0,16.373 4.581,31.699 12.528,44.759l13.796,0c-9.34,-12.496 -14.876,-27.994 -14.876,-44.759c0,-41.309 33.606,-74.917 74.916,-74.917c19.621,0 38.414,8.214 52.917,23.13c13.981,14.378 22,33.254 22,51.787c0,12.689 -2.096,29.933 -11.207,44.759l13.066,0c6.305,-12.692 9.588,-27.867 9.588,-44.759c0,-21.488 -9.199,-43.272 -25.239,-59.768c-16.677,-17.151 -38.385,-26.596 -61.125,-26.596" style="fill:#282827;fill-rule:nonzero;"/><path id="path4544" d="M90.385,173.549c0,4.276 -3.465,7.741 -7.741,7.741c-4.276,0 -7.741,-3.465 -7.741,-7.741c0,-4.276 3.465,-7.742 7.741,-7.742c4.276,0 7.741,3.466 7.741,7.742" style="fill:#282827;fill-rule:nonzero;"/><path id="path4548" d="M138.43,173.549c0,4.276 -3.465,7.741 -7.741,7.741c-4.276,0 -7.741,-3.465 -7.741,-7.741c0,-4.276 3.465,-7.742 7.741,-7.742c4.276,0 7.741,3.466 7.741,7.742" style="fill:#282827;fill-rule:nonzero;"/><path id="path4552" d="M18.682,170.478l42.971,-45.574l-10.343,32.426c33.548,-24.414 68.767,-20.554 93.566,-13.271c26.321,7.728 44.749,-15.519 26.709,-40.317c-8.572,-11.786 -20.331,-21.571 -33.687,-27.506c-35.03,-15.561 -70.25,-6.488 -94.009,17.512c-25.168,25.424 -25.207,53.623 -25.207,76.73" style="fill:#ff6f21;fill-rule:nonzero;"/><path id="path4556" d="M102.629,74.265c-4.988,0 -9.942,0.497 -14.81,1.498c-14.846,3.054 -28.63,10.666 -39.862,22.012c-18.658,18.847 -22.535,39.075 -23.34,58.066l50.137,-53.175l-13.273,41.611c24.944,-13.042 53.465,-14.971 85.006,-5.71c10.038,2.947 19.135,0.714 23.744,-5.828c4.735,-6.721 3.511,-16.302 -3.274,-25.63c-8.108,-11.147 -19.254,-20.252 -31.383,-25.642c-10.757,-4.778 -21.933,-7.202 -32.945,-7.202m-89.67,110.626l0,-14.413c0,-23.889 0,-53.62 26.862,-80.756c12.826,-12.956 28.626,-21.66 45.692,-25.171c17.965,-3.696 36.882,-1.464 54.709,6.455c13.937,6.192 26.72,16.623 35.992,29.368c9.657,13.277 10.951,28.205 3.375,38.957c-7.407,10.514 -21.663,14.523 -36.327,10.219c-33.819,-9.931 -63.624,-5.756 -88.584,12.408l-14.133,10.284l8.006,-25.1l-35.592,37.749Z" style="fill:#282827;fill-rule:nonzero;"/><path id="path4560" d="M127.253,65.205c-5.095,13.274 -19.868,20.686 -33.556,16.833c-15.422,-4.343 -23.564,-16.736 -21.61,-32.456c1.946,-15.633 12.51,-29.34 24.687,-46.236c-10.003,21.292 -1.505,23.287 1.183,23.18c2.656,-0.105 6.533,0.348 12.052,2.179c15.036,4.99 22.984,21.542 17.244,36.5" style="fill:#ff6f21;fill-rule:nonzero;"/><path id="path4564" d="M87.773,26.163c-5.283,8.282 -8.992,15.981 -10.006,24.125c-1.604,12.897 4.931,22.707 17.482,26.24c10.896,3.068 22.605,-2.807 26.661,-13.373c2.199,-5.731 1.969,-11.93 -0.645,-17.455c-2.618,-5.531 -7.255,-9.637 -13.059,-11.563c-5.093,-1.69 -8.264,-1.958 -10.021,-1.892c-3.946,0.155 -7.587,-1.682 -9.734,-4.92c-0.248,-0.373 -0.474,-0.76 -0.678,-1.162m13.302,62.617c-2.968,0 -5.966,-0.399 -8.929,-1.233c-8.888,-2.503 -15.991,-7.45 -20.539,-14.306c-4.534,-6.834 -6.332,-15.26 -5.2,-24.366c2,-16.076 11.908,-29.772 23.38,-45.631c0.774,-1.069 1.555,-2.149 2.344,-3.244l9.823,5.78c-4.848,10.321 -4.292,14.143 -4.037,15.015c3.9,-0.119 8.574,0.712 13.894,2.477c8.802,2.921 15.834,9.147 19.8,17.532c3.966,8.379 4.315,17.773 0.986,26.452c-5.051,13.159 -17.928,21.524 -31.522,21.524" style="fill:#282827;fill-rule:nonzero;"/><path id="path4568" d="M112.789,115.901c-2.004,0 -3.882,-0.891 -5.148,-2.443l-3.851,-4.716c-2.232,-2.733 -1.912,-6.732 0.668,-9.081c-0.833,-0.408 -1.579,-0.996 -2.184,-1.737l-0.879,-1.076c-2.312,-2.831 -1.889,-7.014 0.94,-9.324l0.554,-0.452l-5.64,-6.923c-2.508,-3.072 -2.048,-7.617 1.026,-10.129c1.29,-1.051 2.906,-1.626 4.556,-1.626c2.168,0 4.202,0.963 5.576,2.643l24.058,29.609c2.504,3.068 2.044,7.614 -1.031,10.126c-0.848,0.693 -1.864,1.192 -2.933,1.438c-0.531,0.123 -1.078,0.184 -1.623,0.184c-1.875,0 -3.647,-0.718 -4.981,-1.997l-4.908,4.007c-1.183,0.965 -2.675,1.497 -4.2,1.497" style="fill:#3dcc8e;fill-rule:nonzero;"/><path id="path4572" d="M112.031,68.07c-2.268,-2.771 -5.622,-4.359 -9.199,-4.359c-2.725,0 -5.392,0.95 -7.508,2.672c-5.085,4.155 -5.843,11.655 -1.7,16.73l3.133,3.846c-2.301,3.958 -2.052,9.099 1.011,12.85l0.589,0.722c-1.385,3.655 -0.84,7.934 1.806,11.172l3.85,4.718c2.159,2.645 5.358,4.162 8.775,4.162c2.603,0 5.147,-0.905 7.163,-2.552l2.306,-1.882c1.443,0.606 3.01,0.929 4.622,0.929c0.898,0 1.798,-0.103 2.674,-0.305c1.766,-0.407 3.44,-1.228 4.844,-2.375c5.074,-4.145 5.831,-11.645 1.69,-16.72l-24.034,-29.58l-0.022,-0.028Zm-9.199,5.007c0.729,0 1.453,0.317 1.952,0.928l24.047,29.594c0.88,1.079 0.718,2.666 -0.359,3.546c-0.311,0.253 -0.661,0.418 -1.025,0.502c-0.187,0.044 -0.378,0.066 -0.568,0.066c-0.731,0 -1.455,-0.316 -1.954,-0.927l-2.394,-2.951l-8.503,6.94c-0.364,0.299 -0.803,0.443 -1.24,0.443c-0.568,0 -1.132,-0.247 -1.52,-0.721l-3.851,-4.716c-0.677,-0.83 -0.553,-2.051 0.276,-2.728l8.544,-6.975l-3.49,-4.304l-4.227,3.453c-0.347,0.282 -0.763,0.419 -1.176,0.419c-0.539,0 -1.073,-0.233 -1.441,-0.683l-0.88,-1.078c-0.679,-0.831 -0.556,-2.055 0.274,-2.734l4.178,-3.41l-8.596,-10.551c-0.88,-1.077 -0.719,-2.664 0.358,-3.544c0.471,-0.383 1.035,-0.569 1.595,-0.569" style="fill:#282828;fill-rule:nonzero;"/></g></svg>