<?xml version="1.0" encoding="UTF-8" standalone="no"?><!DOCTYPE svg PUBLIC "-//W3C//DTD SVG 1.1//EN" "http://www.w3.org/Graphics/SVG/1.1/DTD/svg11.dtd"><svg width="100%" height="100%" viewBox="0 0 144 144" version="1.1" xmlns="http://www.w3.org/2000/svg" xmlns:xlink="http://www.w3.org/1999/xlink" xml:space="preserve" xmlns:serif="http://www.serif.com/" style="fill-rule:evenodd;clip-rule:evenodd;stroke-linejoin:round;stroke-miterlimit:1.41421;"><g id="reddit_alien"><path id="background" d="M144,72c0,39.765 -32.235,72 -72,72c-39.765,0 -72,-32.235 -72,-72c0,-39.765 32.235,-72 72,-72c39.765,0 72,32.235 72,72" style="fill:#ff4500;"/><path id="whip" d="M74.126,55.537l4.783,-22.502l15.627,3.321l0.768,-3.67l-17.45,-3.71c-0.485,-0.105 -0.994,-0.009 -1.41,0.262c-0.418,0.271 -0.711,0.697 -0.813,1.183l-5.674,26.693l4.169,-1.577Z" style="fill:#3f3f3f;"/><circle id="antenna" cx="102" cy="36" r="7.5" style="fill:#fff;"/><path id="right_hear" d="M113.738,81.574l-11.558,-17.147c1.886,-1.809 4.441,-2.927 7.261,-2.927c5.799,0 10.5,4.701 10.5,10.5c0,4.267 -2.549,7.931 -6.203,9.574Z" style="fill:#fff;"/><path id="left_hear" d="M30.238,81.574l11.558,-17.147c-1.886,-1.809 -4.44,-2.927 -7.261,-2.927c-5.799,0 -10.5,4.701 -10.5,10.5c0,4.267 2.549,7.931 6.203,9.574Z" style="fill:#fff;"/><ellipse id="face" cx="71.988" cy="84.75" rx="42" ry="29.25" style="fill:#fff;"/><path id="mouth" d="M89.82,99.319c-5.118,5.112 -14.927,5.509 -17.812,5.509c-2.884,0 -12.694,-0.397 -17.806,-5.51c-0.759,-0.759 -0.759,-1.99 0,-2.749c0.759,-0.759 1.99,-0.759 2.748,0c3.227,3.227 10.129,4.371 15.058,4.371c4.931,0 11.834,-1.144 15.065,-4.372c0.761,-0.758 1.991,-0.757 2.749,0.002c0.759,0.76 0.758,1.99 -0.002,2.749" style="fill:#ff4500;"/><path id="eyes" d="M88.5,87.001c-4.136,0 -7.5,-3.364 -7.5,-7.499c0,-4.137 3.364,-7.502 7.5,-7.502c4.135,0 7.5,3.365 7.5,7.502c0,4.135 -3.365,7.499 -7.5,7.499m-40.5,-7.5c0,-4.136 3.366,-7.501 7.503,-7.501c4.134,0 7.497,3.365 7.497,7.501c0,4.134 -3.363,7.498 -7.497,7.498c-4.137,0 -7.503,-3.364 -7.503,-7.498" style="fill:#ff4500;"/></g></svg>