<?xml version="1.0" encoding="UTF-8" standalone="no"?><!DOCTYPE svg PUBLIC "-//W3C//DTD SVG 1.1//EN" "http://www.w3.org/Graphics/SVG/1.1/DTD/svg11.dtd"><svg width="100%" height="100%" viewBox="0 0 1024 1023" version="1.1" xmlns="http://www.w3.org/2000/svg" xmlns:xlink="http://www.w3.org/1999/xlink" xml:space="preserve" xmlns:serif="http://www.serif.com/" style="fill-rule:evenodd;clip-rule:evenodd;stroke-linejoin:round;stroke-miterlimit:1.41421;"><path d="M1024,511.002c0,-44.58 -5.656,-88.161 -16.967,-130.745c-11.311,-42.583 -27.28,-82.173 -47.906,-118.768c-20.627,-36.595 -45.744,-70.362 -75.353,-101.302c-29.609,-30.939 -62.046,-57.72 -97.31,-80.343c-35.265,-22.622 -73.689,-40.754 -115.275,-54.394c-41.585,-13.64 -84.335,-21.79 -128.249,-24.452c-3.327,-0.665 -6.321,-0.998 -8.983,-0.998l-21.957,0c-69.198,0 -135.402,13.474 -198.612,40.421c-63.21,26.947 -117.77,63.21 -163.68,108.788c-45.911,45.577 -82.34,99.971 -109.287,163.181c-26.947,63.21 -40.421,129.414 -40.421,198.612c0,55.225 8.65,108.954 25.949,161.185c17.3,52.231 41.752,99.14 73.357,140.725c31.605,41.586 68.367,78.181 110.285,109.786c41.918,31.605 88.992,56.057 141.224,73.357c52.231,17.299 105.96,25.949 161.185,25.949l19.961,0c1.996,0 3.826,-0.166 5.489,-0.499c1.664,-0.333 3.493,-0.499 5.49,-0.499c65.871,-3.992 128.415,-20.128 187.633,-48.406c59.218,-28.278 110.285,-65.039 153.201,-110.284c42.916,-45.245 77.016,-98.475 102.3,-159.688c25.284,-61.214 37.926,-125.089 37.926,-191.626Zm-94.815,164.678c-34.599,-9.98 -81.175,-18.63 -139.727,-25.949c6.654,-45.245 9.981,-91.488 9.981,-138.729c0,-37.261 -2.329,-74.188 -6.987,-110.784c29.276,-3.327 56.224,-7.319 80.842,-11.976c24.619,-4.658 40.588,-8.151 47.907,-10.48c7.319,-2.329 12.974,-4.158 16.967,-5.489l-11.977,-32.936c22.623,54.56 33.934,111.782 33.934,171.665c0,28.611 -2.662,56.722 -7.985,84.335c-5.323,27.613 -12.974,54.394 -22.955,80.343Zm-643.743,-164.678c0,-11.977 0.333,-23.787 0.999,-35.431c0.665,-11.644 1.497,-23.121 2.495,-34.433c0.998,-11.311 2.162,-22.622 3.493,-33.933c17.965,1.33 36.429,2.495 55.392,3.493c18.963,0.998 39.755,1.83 62.378,2.495c22.622,0.665 45.577,0.998 68.865,0.998l0,221.567c-64.54,0.666 -125.421,3.327 -182.643,7.985c-6.654,-43.915 -10.313,-88.161 -10.979,-132.741Zm257.498,-443.135c25.949,7.319 50.401,23.787 73.356,49.404c22.955,25.617 43.249,57.721 60.881,96.312c17.633,38.591 31.439,81.84 41.419,129.746c-16.634,1.331 -33.933,2.496 -51.898,3.494c-17.965,0.998 -37.427,1.829 -58.386,2.495c-20.959,0.665 -42.75,1.33 -65.372,1.996l0,-283.447Zm-63.876,0.998l0,282.449c-62.544,-0.666 -121.096,-3.327 -175.657,-7.985c23.288,-108.454 62.212,-187.966 116.772,-238.534c19.296,-17.299 38.924,-29.276 58.885,-35.93Zm0,630.769l0,253.504c-51.898,-16.634 -96.478,-64.873 -133.738,-144.717c-13.973,-31.938 -25.617,-65.871 -34.932,-101.801c52.564,-3.992 108.787,-6.321 168.67,-6.986Zm63.876,254.502l0,-254.502c31.272,0.665 61.047,1.497 89.325,2.495c28.278,0.998 54.727,2.495 79.345,4.491c-16.634,65.871 -39.922,120.93 -69.863,165.177c-29.942,44.247 -62.878,71.694 -98.807,82.339Zm0,-318.378l0,-221.567c67.202,-0.665 129.081,-3.327 185.637,-7.984c4.658,34.599 6.986,69.53 6.986,104.795c0,45.245 -3.659,89.492 -10.978,132.741c-55.226,-4.658 -115.774,-7.319 -181.645,-7.985Zm371.274,-322.37c-1.996,0.665 -4.491,1.331 -7.485,1.996c-2.994,0.665 -7.153,1.663 -12.476,2.994c-5.323,1.331 -11.644,2.828 -18.963,4.491c-7.319,1.664 -15.469,3.327 -24.452,4.991c-8.982,1.663 -19.295,3.326 -30.939,4.99c-11.644,1.663 -23.787,3.16 -36.429,4.491c-3.992,-19.296 -8.317,-37.926 -12.975,-55.891c-4.657,-17.965 -9.814,-35.264 -15.47,-51.898c-5.655,-16.635 -11.976,-32.603 -18.963,-47.907c-6.986,-15.303 -14.305,-29.609 -21.957,-42.916c-7.651,-13.307 -15.47,-25.949 -23.454,-37.926c48.572,21.292 92.153,50.235 130.745,86.831c38.591,36.595 69.531,78.513 92.818,125.754Zm-554.916,-222.565c-26.614,29.941 -50.069,66.037 -70.362,108.288c-20.294,42.251 -36.096,88.66 -47.408,139.228c-54.56,-5.988 -99.139,-13.307 -133.739,-21.957c44.58,-90.49 111.782,-158.69 201.607,-204.6c16.634,-7.985 33.268,-14.971 49.902,-20.959Zm-274.464,285.442c34.599,9.315 82.839,17.632 144.718,24.951c-2.662,17.965 -4.492,36.097 -5.49,54.394c-0.998,18.298 -1.497,36.762 -1.497,55.392c0,46.576 3.993,92.819 11.977,138.729c-56.556,5.988 -103.465,13.307 -140.725,21.957c-19.961,-51.899 -29.942,-105.461 -29.942,-160.686c0,-45.91 6.987,-90.823 20.959,-134.737Zm36.928,354.308c35.265,-7.319 77.515,-13.64 126.753,-18.963c11.976,44.58 27.446,85.5 46.409,122.76c18.963,37.261 40.421,69.531 64.374,96.811c-50.568,-17.965 -96.145,-44.247 -136.733,-78.846c-40.587,-34.599 -74.188,-75.186 -100.803,-121.762Zm568.889,190.628c18.63,-26.615 35.431,-57.554 50.402,-92.819c14.97,-35.264 27.113,-73.856 36.428,-115.774c19.296,2.662 37.76,5.323 55.392,7.985c17.633,2.661 31.273,4.99 40.92,6.986c9.648,1.996 18.464,3.992 26.449,5.988c-49.237,85.833 -119.101,148.377 -209.591,187.634Z" style="fill:#fff;fill-rule:nonzero;"/></svg>