<?xml version="1.0" encoding="utf-8"?>
<!-- Generator: Adobe Illustrator 19.1.0, SVG Export Plug-In . SVG Version: 6.00 Build 0)  -->
<svg version="1.1" id="Layer_1" xmlns="http://www.w3.org/2000/svg" xmlns:xlink="http://www.w3.org/1999/xlink" x="0px" y="0px"
	 viewBox="0 0 307 407.2" style="enable-background:new 0 0 307 407.2;" xml:space="preserve">
<style type="text/css">
	
		.st0{fill-rule:evenodd;clip-rule:evenodd;fill:url(#SVGID_1_);stroke:url(#SVGID_2_);stroke-width:11;stroke-linecap:round;stroke-linejoin:round;stroke-miterlimit:10;}
	
		.st1{fill-rule:evenodd;clip-rule:evenodd;fill:url(#SVGID_3_);stroke:url(#SVGID_4_);stroke-width:11;stroke-linecap:round;stroke-linejoin:round;stroke-miterlimit:10;}
	.st2{fill-rule:evenodd;clip-rule:evenodd;fill:url(#SVGID_5_);}
</style>
<g>
	<radialGradient id="SVGID_1_" cx="257.616" cy="303.6585" r="145.1344" gradientUnits="userSpaceOnUse">
		<stop  offset="0" style="stop-color:#666666"/>
		<stop  offset="1" style="stop-color:#000000"/>
	</radialGradient>
	<linearGradient id="SVGID_2_" gradientUnits="userSpaceOnUse" x1="49.6695" y1="298.7046" x2="298.9791" y2="298.7046">
		<stop  offset="0" style="stop-color:#000000"/>
		<stop  offset="1" style="stop-color:#000000"/>
	</linearGradient>
	<path class="st0" d="M109.2,233.1c0,0-64.4,31.6-52.6,52.7c11.8,21.1,42.1-4,47.3-5.3c5.3-1.3,34.2-4,26.3,36.9
		c-7.9,40.8-17.1,72.1,5.2,73.7c18.4,1.3,28.5-63.2,47.3-68.5c23.7-6.6,67.1,52.7,84.2,42.1c17.1-10.5-27.6-63.2-31.6-79
		c-3.9-15.8-7.4-33.7,11.8-36.9c23.7-3.9,43.4,0,46-10.5c2.6-10.5-21-35.5-73.6-31.6C167.1,210.7,109.2,233.1,109.2,233.1z"/>
	<radialGradient id="SVGID_3_" cx="285.616" cy="169.6585" r="224.3234" gradientUnits="userSpaceOnUse">
		<stop  offset="0" style="stop-color:#666666"/>
		<stop  offset="1" style="stop-color:#000000"/>
	</radialGradient>
	<linearGradient id="SVGID_4_" gradientUnits="userSpaceOnUse" x1="7.9818" y1="135.6451" x2="257.7723" y2="135.6451">
		<stop  offset="0" style="stop-color:#000000"/>
		<stop  offset="1" style="stop-color:#000000"/>
	</linearGradient>
	<path class="st1" d="M14.5,151.4C5.8,86,51.7,25.9,117.1,17.1c65.4-8.7,125.4,37.2,134.1,102.7c8.7,65.4-37.2,125.6-102.6,134.3
		C83.3,262.9,23.3,216.9,14.5,151.4z"/>
	<radialGradient id="SVGID_5_" cx="241.616" cy="187.6585" r="199.0904" gradientUnits="userSpaceOnUse">
		<stop  offset="0" style="stop-color:#FFFFFF"/>
		<stop  offset="1" style="stop-color:#BFFFFF"/>
	</radialGradient>
	<path class="st2" d="M40.5,148c-6.8-51.1,33-68.1,84.1-74.9c51-6.8,93.9-0.8,100.8,50.3c6.8,51.1-29.1,98.1-80.1,104.9
		C94.2,235,47.3,199.1,40.5,148z"/>
</g>
</svg>
