<?xml version="1.0" encoding="UTF-8" standalone="no"?><!DOCTYPE svg PUBLIC "-//W3C//DTD SVG 1.1//EN" "http://www.w3.org/Graphics/SVG/1.1/DTD/svg11.dtd"><svg width="100%" height="100%" viewBox="0 0 291 387" version="1.1" xmlns="http://www.w3.org/2000/svg" xmlns:xlink="http://www.w3.org/1999/xlink" xml:space="preserve" xmlns:serif="http://www.serif.com/" style="fill-rule:evenodd;clip-rule:evenodd;stroke-linecap:round;stroke-linejoin:round;stroke-miterlimit:10;"><g><path d="M101.258,222.558c0,0 -64.4,31.6 -52.6,52.7c11.8,21.1 42.1,-4 47.3,-5.3c5.3,-1.3 34.2,-4 26.3,36.9c-7.9,40.8 -17.1,72.1 5.2,73.7c18.4,1.3 28.5,-63.2 47.3,-68.5c23.7,-6.6 67.1,52.7 84.2,42.1c17.1,-10.5 -27.6,-63.2 -31.6,-79c-3.9,-15.8 -7.4,-33.7 11.8,-36.9c23.7,-3.9 43.4,0 46,-10.5c2.6,-10.5 -21,-35.5 -73.6,-31.6c-52.4,4 -110.3,26.4 -110.3,26.4Z" style="fill:url(#_Radial1);stroke:url(#_Linear2);stroke-width:11px;"/><path d="M6.558,140.858c-8.7,-65.4 37.2,-125.5 102.6,-134.3c65.4,-8.7 125.4,37.2 134.1,102.7c8.7,65.4 -37.2,125.6 -102.6,134.3c-65.3,8.8 -125.3,-37.2 -134.1,-102.7Z" style="fill:url(#_Radial3);stroke:url(#_Linear4);stroke-width:11px;"/><path d="M32.558,137.458c-6.8,-51.1 33,-68.1 84.1,-74.9c51,-6.8 93.9,-0.8 100.8,50.3c6.8,51.1 -29.1,98.1 -80.1,104.9c-51.1,6.7 -98,-29.2 -104.8,-80.3Z" style="fill:url(#_Radial5);"/></g><defs><radialGradient id="_Radial1" cx="0" cy="0" r="1" gradientUnits="userSpaceOnUse" gradientTransform="matrix(145.134,0,0,145.134,249.674,293.117)"><stop offset="0" style="stop-color:#666;stop-opacity:1"/><stop offset="1" style="stop-color:#000;stop-opacity:1"/></radialGradient><linearGradient id="_Linear2" x1="0" y1="0" x2="1" y2="0" gradientUnits="userSpaceOnUse" gradientTransform="matrix(249.31,0,0,249.31,41.7277,288.163)"><stop offset="0" style="stop-color:#000;stop-opacity:1"/><stop offset="1" style="stop-color:#000;stop-opacity:1"/></linearGradient><radialGradient id="_Radial3" cx="0" cy="0" r="1" gradientUnits="userSpaceOnUse" gradientTransform="matrix(224.323,0,0,224.323,277.674,159.117)"><stop offset="0" style="stop-color:#666;stop-opacity:1"/><stop offset="1" style="stop-color:#000;stop-opacity:1"/></radialGradient><linearGradient id="_Linear4" x1="0" y1="0" x2="1" y2="0" gradientUnits="userSpaceOnUse" gradientTransform="matrix(249.79,0,0,249.79,0.0399667,125.103)"><stop offset="0" style="stop-color:#000;stop-opacity:1"/><stop offset="1" style="stop-color:#000;stop-opacity:1"/></linearGradient><radialGradient id="_Radial5" cx="0" cy="0" r="1" gradientUnits="userSpaceOnUse" gradientTransform="matrix(199.09,0,0,199.09,233.674,177.117)"><stop offset="0" style="stop-color:#fff;stop-opacity:1"/><stop offset="1" style="stop-color:#bfffff;stop-opacity:1"/></radialGradient></defs></svg>