<?xml version="1.0" encoding="UTF-8" standalone="no"?><!DOCTYPE svg PUBLIC "-//W3C//DTD SVG 1.1//EN" "http://www.w3.org/Graphics/SVG/1.1/DTD/svg11.dtd"><svg width="100%" height="100%" viewBox="0 0 1024 1025" version="1.1" xmlns="http://www.w3.org/2000/svg" xmlns:xlink="http://www.w3.org/1999/xlink" xml:space="preserve" xmlns:serif="http://www.serif.com/" style="fill-rule:evenodd;clip-rule:evenodd;stroke-linejoin:round;stroke-miterlimit:1.41421;"><g id="Blue"><path id="Blue1" serif:id="Blue" d="M967.437,1024.09c31.209,0 56.484,-25.279 56.484,-56.494l0,-911.103c0,-31.223 -25.275,-56.494 -56.484,-56.494l-910.971,0c-31.223,0 -56.466,25.271 -56.466,56.494l0,911.103c0,31.215 25.243,56.494 56.466,56.494l910.971,0Z" style="fill:#3564a3;fill-rule:nonzero;"/><path id="Blue2" serif:id="Blue" d="M706.93,1024.09l0,-397.043l132.67,0l19.928,-154.034l-152.598,0l0,-98.746c0,-44.751 11.987,-75.247 76.153,-75.247l81.836,0.025l0,-138.304c-14.159,-1.881 -62.735,-5.715 -119.25,-5.715c-117.99,0 -198.705,71.655 -198.705,203.937l0,114.05l-134.01,0l0,154.034l133.979,0l0,397.043l159.997,0Z" style="fill:#fff;fill-rule:nonzero;"/></g></svg>