<?xml version="1.0" encoding="UTF-8" standalone="no"?><!DOCTYPE svg PUBLIC "-//W3C//DTD SVG 1.1//EN" "http://www.w3.org/Graphics/SVG/1.1/DTD/svg11.dtd"><svg width="100%" height="100%" viewBox="0 0 121 118" version="1.1" xmlns="http://www.w3.org/2000/svg" xmlns:xlink="http://www.w3.org/1999/xlink" xml:space="preserve" xmlns:serif="http://www.serif.com/" style="fill-rule:evenodd;clip-rule:evenodd;stroke-linejoin:round;stroke-miterlimit:1.41421;"><path d="M60.388,0c-33.347,0 -60.388,27.035 -60.388,60.387c0,26.681 17.303,49.317 41.297,57.302c3.018,0.559 4.126,-1.31 4.126,-2.905c0,-1.44 -0.056,-6.197 -0.082,-11.243c-16.8,3.653 -20.345,-7.125 -20.345,-7.125c-2.747,-6.98 -6.705,-8.836 -6.705,-8.836c-5.479,-3.748 0.413,-3.671 0.413,-3.671c6.064,0.425 9.257,6.223 9.257,6.223c5.386,9.232 14.127,6.563 17.573,5.02c0.542,-3.902 2.107,-6.568 3.834,-8.075c-13.413,-1.527 -27.513,-6.705 -27.513,-29.844c0,-6.593 2.359,-11.98 6.222,-16.209c-0.627,-1.522 -2.694,-7.663 0.585,-15.981c0,0 5.071,-1.623 16.611,6.19c4.817,-1.338 9.983,-2.009 15.115,-2.032c5.132,0.023 10.302,0.694 15.128,2.032c11.526,-7.813 16.59,-6.19 16.59,-6.19c3.287,8.318 1.219,14.459 0.592,15.981c3.872,4.229 6.215,9.616 6.215,16.209c0,23.194 -14.127,28.301 -27.574,29.796c2.166,1.874 4.096,5.549 4.096,11.183c0,8.079 -0.07,14.582 -0.07,16.572c0,1.607 1.087,3.49 4.148,2.897c23.981,-7.994 41.262,-30.622 41.262,-57.294c0,-33.352 -27.037,-60.387 -60.387,-60.387Z" style="fill:#fff;"/></svg>