<?xml version="1.0" encoding="UTF-8" standalone="no"?><!DOCTYPE svg PUBLIC "-//W3C//DTD SVG 1.1//EN" "http://www.w3.org/Graphics/SVG/1.1/DTD/svg11.dtd"><svg width="100%" height="100%" viewBox="0 0 122 122" version="1.1" xmlns="http://www.w3.org/2000/svg" xmlns:xlink="http://www.w3.org/1999/xlink" xml:space="preserve" xmlns:serif="http://www.serif.com/" style="fill-rule:evenodd;clip-rule:evenodd;stroke-linejoin:round;stroke-miterlimit:1.41421;"><g><path d="M79.03,7.511c-1.9,-5.7 -8,-8.8 -13.7,-7c-5.7,1.9 -8.8,8 -7,13.7l28.1,86.4c1.9,5.3 7.7,8.3 13.2,6.7c5.8,-1.7 9.3,-7.8 7.4,-13.4c0,-0.2 -28,-86.4 -28,-86.4Z" style="fill:#ecb32d;fill-rule:nonzero;"/><path d="M35.53,21.611c-1.9,-5.7 -8,-8.8 -13.7,-7c-5.7,1.9 -8.8,8 -7,13.7l28.1,86.4c1.9,5.3 7.7,8.3 13.2,6.7c5.8,-1.7 9.3,-7.8 7.4,-13.4c0,-0.2 -28,-86.4 -28,-86.4Z" style="fill:#63c1a0;fill-rule:nonzero;"/><path d="M114.43,79.011c5.7,-1.9 8.8,-8 7,-13.7c-1.9,-5.7 -8,-8.8 -13.7,-7l-86.5,28.2c-5.3,1.9 -8.3,7.7 -6.7,13.2c1.7,5.8 7.8,9.3 13.4,7.4c0.2,0 86.5,-28.1 86.5,-28.1Z" style="fill:#e01a59;fill-rule:nonzero;"/><path d="M39.23,103.511c5.6,-1.8 12.9,-4.2 20.7,-6.7c-1.8,-5.6 -4.2,-12.9 -6.7,-20.7l-20.7,6.7l6.7,20.7Z" style="fill:#331433;fill-rule:nonzero;"/><path d="M82.83,89.311c7.8,-2.5 15.1,-4.9 20.7,-6.7c-1.8,-5.6 -4.2,-12.9 -6.7,-20.7l-20.7,6.7l6.7,20.7Z" style="fill:#d62027;fill-rule:nonzero;"/><path d="M100.23,35.511c5.7,-1.9 8.8,-8 7,-13.7c-1.9,-5.7 -8,-8.8 -13.7,-7l-86.4,28.1c-5.3,1.9 -8.3,7.7 -6.7,13.2c1.7,5.8 7.8,9.3 13.4,7.4c0.2,0 86.4,-28 86.4,-28Z" style="fill:#89d3df;fill-rule:nonzero;"/><path d="M25.13,59.911c5.6,-1.8 12.9,-4.2 20.7,-6.7c-2.5,-7.8 -4.9,-15.1 -6.7,-20.7l-20.7,6.7l6.7,20.7Z" style="fill:#258b74;fill-rule:nonzero;"/><path d="M68.63,45.811c7.8,-2.5 15.1,-4.9 20.7,-6.7c-2.5,-7.8 -4.9,-15.1 -6.7,-20.7l-20.7,6.7l6.7,20.7Z" style="fill:#819c3c;fill-rule:nonzero;"/></g></svg>